<svg width="100" height="100" viewBox="0 0 100 100" fill="none" xmlns="http://www.w3.org/2000/svg">
<rect width="100" height="100" rx="20" fill="#242938"/>
<mask id="mask0_62_127" style="mask-type:luminance" maskUnits="userSpaceOnUse" x="32" y="24" width="37" height="52">
<path d="M32.5508 24H68.0014V75.8125H32.5508V24Z" fill="white"/>
</mask>
<g mask="url(#mask0_62_127)">
<path d="M41.4157 75.8139C46.307 75.8139 50.2765 71.9453 50.2765 67.1786V58.543H41.4157C36.5245 58.543 32.5547 62.4118 32.5547 67.1786C32.5547 71.9453 36.5245 75.8139 41.4157 75.8139Z" fill="#0ACF83"/>
<path d="M32.5547 49.9049C32.5547 45.1381 36.5245 41.2695 41.4157 41.2695H50.2765V58.5402H41.4157C36.5245 58.5402 32.5547 54.6716 32.5547 49.9049Z" fill="#A259FF"/>
<path d="M32.5547 32.6353C32.5547 27.8686 36.5245 24 41.4157 24H50.2765V41.2709H41.4157C36.5245 41.2709 32.5547 37.4021 32.5547 32.6353Z" fill="#F24E1E"/>
<path d="M50.2754 24H59.1362C64.0274 24 67.9972 27.8686 67.9972 32.6353C67.9972 37.4021 64.0274 41.2709 59.1362 41.2709H50.2754V24Z" fill="#FF7262"/>
<path d="M67.9972 49.9049C67.9972 54.6716 64.0274 58.5402 59.1362 58.5402C54.245 58.5402 50.2754 54.6716 50.2754 49.9049C50.2754 45.1381 54.245 41.2695 59.1362 41.2695C64.0274 41.2695 67.9972 45.1381 67.9972 49.9049Z" fill="#1ABCFE"/>
</g>
</svg>
