<svg width="100" height="100" viewBox="0 0 100 100" fill="none" xmlns="http://www.w3.org/2000/svg">
<rect width="100" height="100" rx="20" fill="#242938"/>
<path d="M72.5547 24L68.4957 71.6945L50.2501 77L32.0548 71.7019L28 24H72.5547Z" fill="#E44D26"/>
<path d="M50.2773 72.9428L65.0207 68.6557L68.4892 27.8984H50.2773V72.9428Z" fill="#F16529"/>
<path d="M42.3868 39.6043H50.2774V33.7539H36.291L36.4244 35.3235L37.7954 51.4457H50.2774V45.5953H42.8966L42.3868 39.6043ZM43.6439 54.371H38.0447L38.826 63.5571L50.2518 66.8838L50.2774 66.8765V60.7895L50.253 60.7963L44.0411 59.037L43.6439 54.371Z" fill="#EBEBEB"/>
<path d="M50.258 51.4457H57.1264L56.4788 59.0333L50.2578 60.7945V66.8811L61.6926 63.5571L61.7764 62.5687L63.0874 47.1663L63.2234 45.5953H50.258V51.4457ZM50.258 39.5901V39.6043H63.7309L63.8427 38.2894L64.097 35.3235L64.2303 33.7539H50.258V39.5901Z" fill="white"/>
</svg>
