<svg width="100" height="100" viewBox="0 0 100 100" fill="none" xmlns="http://www.w3.org/2000/svg">
<rect width="100" height="100" rx="20" fill="#242938"/>
<path d="M68.7031 22H31.2969C26.1624 22 22 26.2622 22 31.52V68.3904C22 73.6482 26.1624 77.9104 31.2969 77.9104H68.7031C73.8376 77.9104 78 73.6482 78 68.3904V31.52C78 26.2622 73.8376 22 68.7031 22Z" fill="#330000"/>
<path d="M49.1374 55.5529H40.4595L38.6938 61.1693C38.6698 61.2717 38.6116 61.3623 38.5293 61.4256C38.447 61.4888 38.3457 61.5206 38.2429 61.5156H33.8476C33.5971 61.5156 33.5094 61.3744 33.5847 61.0922L41.0981 38.9346C41.1732 38.7038 41.2483 38.441 41.3234 38.1461C41.4218 37.6327 41.4721 37.1112 41.4737 36.5882C41.4686 36.5516 41.4718 36.5143 41.4832 36.4792C41.4946 36.4441 41.5138 36.4123 41.5394 36.3861C41.5649 36.36 41.596 36.3403 41.6302 36.3286C41.6644 36.3169 41.7009 36.3135 41.7366 36.3187H47.7098C47.8848 36.3187 47.985 36.3829 48.0104 36.5113L56.5379 61.1307C56.613 61.3876 56.5379 61.5159 56.3126 61.5156H51.4288C51.3449 61.5249 51.2606 61.5028 51.1915 61.4533C51.1224 61.4037 51.0732 61.3302 51.0532 61.2463L49.1374 55.5529ZM41.8119 50.706H47.7474L47.6628 50.4199L47.5269 49.967L47.43 49.6489L47.2754 49.1481L46.9466 48.0937L46.6574 47.1589L45.9064 44.7241C45.7195 44.1188 45.5401 43.5111 45.3683 42.9012L45.2309 42.4061L45.0704 41.8208L44.8254 40.9136L44.7794 40.7427H44.742C44.554 41.666 44.3251 42.5801 44.056 43.4822L43.4986 45.3181L43.1919 46.3324L42.8824 47.3592C42.8266 47.5447 42.7708 47.7281 42.7151 47.9093L42.5488 48.4465L42.3834 48.9711L42.2189 49.4827L42.0553 49.9816C42.0011 50.1458 41.9469 50.3079 41.8928 50.4677L41.8119 50.706ZM61.6089 40.3964C61.2258 40.4121 60.8437 40.3448 60.4877 40.199C60.1317 40.0532 59.8097 39.8321 59.5429 39.5501C59.2769 39.2558 59.0703 38.9106 58.9349 38.5343C58.7994 38.158 58.7379 37.7581 58.7538 37.3574C58.7402 36.9607 58.8084 36.5655 58.9541 36.1977C59.0997 35.8299 59.3195 35.4976 59.5991 35.2227C60.1383 34.6926 60.8564 34.396 61.6039 34.3945L61.684 34.3954C62.5857 34.3954 63.2932 34.6711 63.8067 35.2224C64.0658 35.509 64.2672 35.8451 64.3993 36.2114C64.5315 36.5777 64.5917 36.9672 64.5767 37.3574C64.5926 37.7597 64.5293 38.1612 64.3906 38.5379C64.2518 38.9147 64.0405 39.259 63.7691 39.5503C63.4952 39.8267 63.1701 40.0442 62.8129 40.19C62.4557 40.3358 62.0737 40.407 61.6892 40.3993L61.6089 40.3964ZM59.0168 61.1307V42.743C59.0166 42.5121 59.1168 42.3967 59.3173 42.3967H63.9382C64.1384 42.3967 64.2386 42.5121 64.2388 42.743V61.1307C64.2388 61.3876 64.1386 61.5159 63.9382 61.5156H59.3549C59.1414 61.5156 59.0291 61.4004 59.0179 61.1701L59.0168 61.1307Z" fill="#FF9A00"/>
</svg>
