<svg width="100" height="100" viewBox="0 0 100 100" fill="none" xmlns="http://www.w3.org/2000/svg">
<rect width="100" height="100" rx="20" fill="#242938"/>
<path d="M64.875 22H35.125C27.8763 22 22 27.8763 22 35.125V64.875C22 72.1237 27.8763 78 35.125 78H64.875C72.1237 78 78 72.1237 78 64.875V35.125C78 27.8763 72.1237 22 64.875 22Z" fill="#001E36"/>
<path d="M34.5996 60.9457V36.9357C34.5996 36.7722 34.6696 36.6791 34.833 36.6791C35.2296 36.6791 35.603 36.6791 36.1396 36.6557C36.6996 36.6322 37.283 36.6322 37.913 36.6091C38.543 36.5857 39.2196 36.5857 39.943 36.5622C40.6662 36.5391 41.3662 36.5391 42.0662 36.5391C43.9796 36.5391 45.5662 36.7722 46.873 37.2622C48.0443 37.6601 49.1123 38.3137 49.9996 39.1757C50.7513 39.9301 51.3322 40.8373 51.703 41.8357C52.053 42.8157 52.2396 43.8191 52.2396 44.8691C52.2396 46.8757 51.7729 48.5324 50.8396 49.8391C49.9062 51.1457 48.5996 52.1257 47.083 52.6857C45.4962 53.2691 43.7462 53.4791 41.833 53.4791C41.273 53.4791 40.8996 53.4791 40.6662 53.4557C40.4328 53.4323 40.1062 53.4322 39.663 53.4322V60.9222C39.6862 61.0857 39.5696 61.2257 39.4062 61.2491H34.8796C34.693 61.2491 34.5996 61.1557 34.5996 60.9457ZM39.6862 41.1822V49.0222C40.013 49.0457 40.3162 49.0691 40.5962 49.0691H41.833C42.743 49.0691 43.653 48.9291 44.5162 48.6491C45.263 48.4391 45.9162 47.9957 46.4296 47.4122C46.9196 46.8291 47.153 46.0357 47.153 45.0091C47.1749 44.2799 46.9887 43.5595 46.6162 42.9322C46.2196 42.3257 45.6596 41.8591 44.983 41.6022C44.1196 41.2522 43.1862 41.1123 42.2296 41.1357C41.623 41.1357 41.0862 41.1357 40.643 41.1591C40.1762 41.1357 39.8496 41.1591 39.6862 41.1822ZM66.7996 47.5991C66.0996 47.2257 65.353 46.9691 64.5596 46.8057C63.6962 46.6191 62.833 46.5022 61.9462 46.5022C61.4796 46.4791 60.9896 46.5491 60.5462 46.6657C60.243 46.7357 59.9862 46.8991 59.823 47.1322C59.7062 47.3191 59.6362 47.5522 59.6362 47.7622C59.6362 47.9722 59.7296 48.1822 59.8696 48.3691C60.0796 48.6257 60.3596 48.8357 60.663 48.9991C61.204 49.2792 61.7567 49.5361 62.3196 49.7691C63.5796 50.1891 64.793 50.7722 65.913 51.4722C66.683 51.9622 67.313 52.6157 67.7562 53.4091C68.1296 54.1557 68.3162 54.9722 68.293 55.8122C68.3162 56.9091 67.9896 58.0057 67.383 58.9157C66.7322 59.8471 65.824 60.5687 64.7696 60.9923C63.6262 61.4823 62.2262 61.7391 60.5462 61.7391C59.473 61.7391 58.423 61.6457 57.373 61.4357C56.5501 61.2935 55.7497 61.0425 54.993 60.6891C54.8296 60.5957 54.713 60.4322 54.7362 60.2457V56.1857C54.7362 56.1157 54.7596 56.0223 54.8296 55.9757C54.8996 55.9291 54.9696 55.9522 55.0396 55.9991C55.9496 56.5357 56.9062 56.9091 57.933 57.1422C58.8196 57.3757 59.753 57.4923 60.6862 57.4923C61.573 57.4923 62.203 57.3757 62.623 57.1657C62.9962 57.0022 63.253 56.6057 63.253 56.1857C63.253 55.8591 63.0662 55.5557 62.693 55.2522C62.3196 54.9491 61.5496 54.5991 60.4062 54.1557C59.2334 53.7423 58.1196 53.1775 57.093 52.4757C56.3617 51.9546 55.7559 51.277 55.3196 50.4923C54.9462 49.7457 54.7596 48.9291 54.783 48.1122C54.783 47.1091 55.063 46.1523 55.5762 45.2891C56.1596 44.3557 57.023 43.6091 58.0262 43.1422C59.123 42.5822 60.4996 42.3257 62.1562 42.3257C63.113 42.3257 64.093 42.3957 65.0496 42.5357C65.7496 42.6291 66.4262 42.8157 67.0562 43.0722C67.1496 43.0957 67.243 43.1891 67.2896 43.2822C67.313 43.3757 67.3362 43.4691 67.3362 43.5622V47.3657C67.3362 47.4591 67.2896 47.5522 67.2196 47.5991C67.0096 47.6457 66.893 47.6457 66.7996 47.5991Z" fill="#31A8FF"/>
</svg>
