<svg width="100" height="100" viewBox="0 0 100 100" fill="none" xmlns="http://www.w3.org/2000/svg">
<rect width="100" height="100" rx="20" fill="#242938"/>
<path d="M49.5955 24C37.2938 24 38.0619 29.7867 38.0619 29.7867L38.0756 35.7818H49.8149V37.5817H33.4129C33.4129 37.5817 25.541 36.6133 25.541 50.0771C25.541 63.5413 32.4118 63.0638 32.4118 63.0638H36.5122V56.8159C36.5122 56.8159 36.2912 49.3631 43.2733 49.3631H54.9166C54.9166 49.3631 61.4582 49.4778 61.4582 42.5054V30.9769C61.4582 30.9769 62.4517 24 49.5955 24ZM43.1225 28.0316C43.3999 28.0314 43.6746 28.0904 43.931 28.2054C44.1873 28.3205 44.4202 28.4892 44.6164 28.702C44.8125 28.9148 44.9681 29.1674 45.0741 29.4454C45.1802 29.7235 45.2346 30.0215 45.2344 30.3224C45.2346 30.6233 45.1802 30.9213 45.0741 31.1994C44.9681 31.4774 44.8125 31.7301 44.6164 31.9429C44.4202 32.1556 44.1873 32.3244 43.931 32.4394C43.6746 32.5544 43.3999 32.6135 43.1225 32.6132C42.8451 32.6135 42.5703 32.5544 42.314 32.4394C42.0577 32.3244 41.8247 32.1556 41.6286 31.9429C41.4324 31.7301 41.2769 31.4774 41.1708 31.1994C41.0648 30.9213 41.0103 30.6233 41.0106 30.3224C41.0103 30.0215 41.0648 29.7235 41.1708 29.4454C41.2769 29.1674 41.4324 28.9148 41.6286 28.702C41.8247 28.4892 42.0577 28.3205 42.314 28.2054C42.5703 28.0904 42.8451 28.0314 43.1225 28.0316Z" fill="url(#paint0_linear_62_126)"/>
<path d="M49.9451 76.2847C62.2468 76.2847 61.4787 70.498 61.4787 70.498L61.4651 64.5031H49.7256V62.7032H66.1275C66.1275 62.7032 73.9994 63.6715 73.9994 50.2073C73.9994 36.7433 67.1287 37.2208 67.1287 37.2208H63.0282V43.4685C63.0282 43.4685 63.2493 50.9213 56.2671 50.9213H44.6238C44.6238 50.9213 38.0822 50.8067 38.0822 57.7793V69.308C38.0822 69.308 37.0889 76.2847 49.9449 76.2847M56.418 72.2535C56.1406 72.2537 55.8658 72.1947 55.6095 72.0796C55.3531 71.9646 55.1202 71.7959 54.9241 71.5831C54.7279 71.3703 54.5724 71.1177 54.4663 70.8396C54.3603 70.5616 54.3058 70.2636 54.3061 69.9627C54.3058 69.6617 54.3602 69.3637 54.4663 69.0856C54.5723 68.8076 54.7278 68.5549 54.924 68.3421C55.1202 68.1293 55.3531 67.9606 55.6094 67.8455C55.8658 67.7305 56.1405 67.6714 56.418 67.6717C56.6954 67.6714 56.9701 67.7305 57.2264 67.8455C57.4828 67.9605 57.7157 68.1293 57.9119 68.342C58.108 68.5548 58.2636 68.8074 58.3696 69.0855C58.4757 69.3636 58.5301 69.6616 58.5299 69.9625C58.5301 70.2634 58.4757 70.5614 58.3696 70.8394C58.2636 71.1175 58.108 71.3701 57.9119 71.5829C57.7157 71.7957 57.4828 71.9644 57.2264 72.0794C56.9701 72.1945 56.6954 72.2537 56.418 72.2535Z" fill="url(#paint1_linear_62_126)"/>
<defs>
<linearGradient id="paint0_linear_62_126" x1="491.222" y1="494.315" x2="3085.39" y2="2862.03" gradientUnits="userSpaceOnUse">
<stop stop-color="#387EB8"/>
<stop offset="1" stop-color="#366994"/>
</linearGradient>
<linearGradient id="paint1_linear_62_126" x1="725.429" y1="841.156" x2="3500.88" y2="3259.99" gradientUnits="userSpaceOnUse">
<stop stop-color="#FFE052"/>
<stop offset="1" stop-color="#FFC331"/>
</linearGradient>
</defs>
</svg>
