<svg width="100" height="100" viewBox="0 0 100 100" fill="none" xmlns="http://www.w3.org/2000/svg">
<rect width="100" height="100" rx="20" fill="#242938"/>
<path d="M67.917 34.1246C67.8785 33.8632 67.6331 33.7186 67.4304 33.7027C65.9353 33.5978 64.4402 33.4938 62.945 33.3907C62.945 33.3907 59.9705 30.6349 59.644 30.3299C59.3173 30.0251 58.6793 30.1178 58.4317 30.1858C58.3953 30.1958 57.7818 30.3725 56.7671 30.6655C55.7735 27.9973 54.0199 25.5453 50.9348 25.5453C50.8496 25.5453 50.762 25.5486 50.6743 25.5532C49.7969 24.4704 48.7101 24 47.7713 24C40.5848 24 37.1514 32.3836 36.0749 36.6439C33.2824 37.4514 31.2986 38.0254 31.0452 38.0997C29.4865 38.556 29.4372 38.6018 29.2325 39.9724C29.0785 41.0101 25 70.4434 25 70.4434L56.7803 76L74 72.5238C74 72.5238 67.955 34.3859 67.917 34.1246ZM55.0106 31.1725L52.3215 31.9492C52.3224 31.7723 52.3234 31.5983 52.3234 31.408C52.3234 29.7498 52.0767 28.4146 51.681 27.3561C53.2706 27.5423 54.3293 29.2301 55.0106 31.1725ZM49.7091 27.685C50.151 28.7183 50.4384 30.2014 50.4384 32.2026C50.4384 32.305 50.4374 32.3986 50.4365 32.4933C48.6876 32.9988 46.7873 33.5477 44.8827 34.0983C45.9521 30.2468 47.9566 28.3866 49.7091 27.685ZM47.5739 25.7988C47.8841 25.7988 48.1966 25.8971 48.4956 26.0891C46.1924 27.1005 43.7237 29.6477 42.6812 34.7344L38.2912 36.0032C39.5123 32.1233 42.4121 25.7988 47.5739 25.7988Z" fill="#95BF46"/>
<path d="M67.4444 33.7526C65.9525 33.6479 64.4606 33.544 62.9685 33.441C62.9685 33.441 60.0003 30.6886 59.6745 30.384C59.5525 30.2706 59.3881 30.2125 59.2162 30.1875L56.8184 75.997L74.0002 72.5255C74.0002 72.5255 67.9679 34.435 67.93 34.174C67.8915 33.9129 67.6467 33.7685 67.4444 33.7526Z" fill="#5E8E3E"/>
<path d="M51.0913 42.7367L48.9639 48.6843C48.9639 48.6843 47.1 47.7494 44.8152 47.7494C41.4657 47.7494 41.2971 49.725 41.2971 50.2228C41.2971 52.9392 48.8311 53.98 48.8311 60.3428C48.8311 65.3487 45.4529 68.5722 40.8979 68.5722C35.432 68.5722 32.6367 65.3749 32.6367 65.3749L34.1003 60.8301C34.1003 60.8301 36.9735 63.1486 39.3981 63.1486C40.9823 63.1486 41.6267 61.9763 41.6267 61.1197C41.6267 57.5763 35.4458 57.4183 35.4458 51.5958C35.4458 46.6954 39.1882 41.9531 46.7425 41.9531C49.6533 41.9531 51.0913 42.7367 51.0913 42.7367Z" fill="white"/>
</svg>
