<svg width="100" height="100" viewBox="0 0 100 100" fill="none" xmlns="http://www.w3.org/2000/svg">
<rect width="100" height="100" rx="20" fill="#242938"/>
<path d="M30.332 50.4367C30.332 58.3949 34.957 65.2724 41.6634 68.5316L32.0727 42.2545C30.9233 44.829 30.3302 47.6172 30.332 50.4367ZM64.0103 49.4221C64.0103 46.9375 63.1178 45.2167 62.3523 43.8773C61.3331 42.2212 60.3777 40.8187 60.3777 39.1626C60.3777 37.3143 61.7795 35.594 63.7539 35.594C63.8432 35.594 63.9276 35.605 64.0145 35.6099C60.4375 32.3329 55.672 30.332 50.4374 30.332C43.4137 30.332 37.2339 33.9358 33.6391 39.3944C34.1106 39.4084 34.5552 39.4185 34.9328 39.4185C37.0359 39.4185 40.2911 39.163 40.2911 39.163C41.3748 39.0993 41.5028 40.6912 40.42 40.8194C40.42 40.8194 39.3309 40.9476 38.1189 41.0111L45.4403 62.7887L49.8402 49.5927L46.7078 41.0104C45.6252 40.9469 44.5996 40.8187 44.5996 40.8187C43.5161 40.7552 43.6431 39.0986 44.7266 39.1626C44.7266 39.1626 48.0468 39.4176 50.0223 39.4176C52.1252 39.4176 55.3806 39.1626 55.3806 39.1626C56.4653 39.0986 56.5926 40.6905 55.5095 40.8187C55.5095 40.8187 54.4181 40.9469 53.2084 41.0104L60.4743 62.623L62.4796 55.9218C63.3489 53.1407 64.0103 51.1434 64.0103 49.4221Z" fill="white"/>
<path d="M50.7902 52.1938L44.7578 69.7227C46.6021 70.2658 48.5148 70.5417 50.4374 70.5418C52.7114 70.5425 54.9689 70.1571 57.1138 69.402C57.0581 69.3141 57.0102 69.2214 56.9709 69.125L50.7902 52.1938ZM68.0791 40.7891C68.1704 41.4743 68.2156 42.1649 68.2145 42.8562C68.2145 44.8965 67.8334 47.1901 66.6857 50.0579L60.5444 67.8139C66.5216 64.3283 70.5421 57.8527 70.5421 50.4355C70.5423 46.9398 69.6496 43.6527 68.0791 40.7891Z" fill="white"/>
<path d="M50.437 27C37.5141 27 27 37.5134 27 50.4361C27 63.3605 37.5141 73.8734 50.437 73.8734C63.3593 73.8734 73.875 63.3605 73.875 50.4361C73.8745 37.5134 63.3593 27 50.437 27ZM50.437 72.7992C38.1066 72.7992 28.0746 62.767 28.0746 50.4361C28.0746 38.1059 38.1063 28.0746 50.437 28.0746C62.7668 28.0746 72.798 38.1059 72.798 50.4361C72.798 62.767 62.7668 72.7992 50.437 72.7992Z" fill="white"/>
</svg>
