<svg width="100" height="100" viewBox="0 0 100 100" fill="none" xmlns="http://www.w3.org/2000/svg">
<rect width="100" height="100" rx="20" fill="#242938"/>
<path d="M64.875 22H35.125C27.8763 22 22 27.8763 22 35.125V64.875C22 72.1237 27.8763 78 35.125 78H64.875C72.1237 78 78 72.1237 78 64.875V35.125C78 27.8763 72.1237 22 64.875 22Z" fill="#470137"/>
<path d="M51.3648 39.5469L44.8023 50.3751L51.8023 61.8594C51.8461 61.9469 51.868 62.0344 51.8461 62.1219C51.8242 62.2094 51.7367 62.1438 51.6055 62.1657H46.5961C46.2461 62.1657 46.0055 62.1438 45.8523 61.9251C45.393 61.0063 44.9117 60.1094 44.4523 59.1907C43.993 58.2938 43.4898 57.3751 42.9648 56.4344C42.4398 55.4938 41.9148 54.5532 41.3898 53.5907H41.3461C40.8867 54.5313 40.3836 55.4719 39.8805 56.4126C39.3773 57.3532 38.8742 58.2938 38.393 59.2126C37.8898 60.1313 37.3867 61.0719 36.8836 61.9688C36.7961 62.1876 36.6211 62.2094 36.3805 62.2094H31.568C31.4805 62.2094 31.4148 62.2532 31.4148 62.1438C31.393 62.0563 31.4148 61.9688 31.4586 61.9032L38.2617 50.7469L31.6336 39.5251C31.568 39.4376 31.5461 39.3501 31.5898 39.3063C31.6336 39.2407 31.7211 39.2188 31.8086 39.2188H36.7742C36.8836 39.2188 36.993 39.2407 37.0805 39.2626C37.168 39.3063 37.2336 39.3719 37.2992 39.4594C37.7148 40.4001 38.1961 41.3407 38.6992 42.2813C39.2242 43.2219 39.7273 44.1407 40.2742 45.0594C40.7992 45.9782 41.2805 46.8969 41.7398 47.8376H41.7836C42.243 46.8751 42.7242 45.9344 43.2055 45.0157C43.6867 44.0969 44.1898 43.1782 44.693 42.2594C45.1961 41.3407 45.6773 40.4001 46.1586 39.5032C46.1805 39.4157 46.2242 39.3282 46.2898 39.2844C46.3773 39.2407 46.4648 39.2188 46.5742 39.2407H51.1898C51.2992 39.2188 51.4086 39.2844 51.4305 39.3938C51.4523 39.4157 51.4086 39.5032 51.3648 39.5469ZM61.4711 62.6253C59.8523 62.6472 58.2336 62.319 56.768 61.6409C55.3898 61.0065 54.2523 59.9565 53.4648 58.6659C52.6555 57.3315 52.2617 55.669 52.2617 53.6784C52.2398 52.0596 52.6555 50.4628 53.4648 49.0628C54.2961 47.6409 55.4992 46.4597 56.943 45.6722C58.4742 44.819 60.3117 44.4034 62.4773 44.4034C62.5867 44.4034 62.7398 44.4034 62.9367 44.4253C63.1336 44.4471 63.3523 44.4472 63.6148 44.469V37.5565C63.6148 37.4034 63.6805 37.3159 63.8336 37.3159H68.2742C68.3836 37.294 68.4711 37.3815 68.493 37.469V58.3378C68.493 58.7315 68.5148 59.169 68.5367 59.6503C68.5805 60.1096 68.6023 60.5471 68.6242 60.919C68.6242 61.0721 68.5586 61.2034 68.4055 61.269C67.268 61.7503 66.0648 62.1003 64.8398 62.319C63.7242 62.5159 62.6086 62.6253 61.4711 62.6253ZM63.6148 58.2503V48.6253C63.418 48.5815 63.2211 48.5378 63.0242 48.5159C62.7836 48.494 62.543 48.4721 62.3023 48.4721C61.4492 48.4721 60.5961 48.6471 59.8305 49.0409C59.0867 49.4128 58.4523 49.9597 57.9711 50.6597C57.4898 51.3597 57.2492 52.3003 57.2492 53.4378C57.2273 54.2034 57.3586 54.969 57.6211 55.6909C57.8398 56.2815 58.168 56.8065 58.6055 57.244C59.0211 57.6378 59.5242 57.944 60.093 58.119C60.6836 58.3159 61.2961 58.4034 61.9086 58.4034C62.2367 58.4034 62.543 58.3815 62.8273 58.3597C63.1117 58.3815 63.3523 58.3378 63.6148 58.2503Z" fill="#FF61F6"/>
</svg>
